<?xml version="1.0" encoding="utf-8"?>
<!-- Generator: Adobe Illustrator 23.0.1, SVG Export Plug-In . SVG Version: 6.00 Build 0)  -->
<svg version="1.1" id="Layer_1" xmlns="http://www.w3.org/2000/svg" xmlns:xlink="http://www.w3.org/1999/xlink" x="0px" y="0px"
	 viewBox="0 0 69.74 60.48" style="enable-background:new 0 0 69.74 60.48;" xml:space="preserve">
<style type="text/css">
	.st0{fill:none;stroke:#000000;stroke-width:5;stroke-miterlimit:10;}
	.st1{fill:#E5E5E5;}
</style>
<g>
	<path d="M121.83,248.31v0.49h-0.01C121.82,248.63,121.82,248.46,121.83,248.31z"/>
	<path d="M122.25,234.66c-0.14,0.13-0.28,0.27-0.41,0.41v-0.69c0.09,0.03,0.21,0.06,0.3,0.1L122.25,234.66z"/>
	<path d="M121.83,248.31v0.49h-0.01C121.82,248.63,121.82,248.46,121.83,248.31z"/>
	<path d="M171.82,248.2c0.01,0.2,0.01,0.39,0.01,0.59c0,0.28-0.01,0.55-0.02,0.83c-0.03,0.47-0.07,0.93-0.14,1.39
		c-0.04,0.29-0.08,0.57-0.14,0.84c-0.03,0.17-0.06,0.32-0.11,0.49c-0.03,0.16-0.06,0.3-0.1,0.44c-0.16,0.56-0.34,1.1-0.55,1.62
		c-0.06,0.17-0.12,0.33-0.21,0.49c-0.08,0.21-0.19,0.4-0.28,0.61c-0.07,0.14-0.14,0.29-0.23,0.42c-0.08,0.17-0.18,0.32-0.27,0.48
		c-0.12,0.23-0.26,0.44-0.4,0.66c-0.14,0.22-0.29,0.42-0.44,0.63c-0.16,0.21-0.31,0.41-0.47,0.61c-0.17,0.21-0.33,0.4-0.51,0.59
		c-0.17,0.2-0.34,0.38-0.53,0.56c-0.19,0.19-0.37,0.36-0.56,0.54c-0.35,0.33-0.72,0.64-1.12,0.93c-0.38,0.29-0.79,0.56-1.2,0.81
		c-0.6,0.37-1.23,0.69-1.88,0.97c-0.03,0.02-0.06,0.03-0.1,0.04c-0.22,0.09-0.44,0.18-0.66,0.26c-0.47,0.18-0.94,0.32-1.42,0.44
		c-0.3,0.08-0.61,0.14-0.92,0.21c-0.27,0.05-0.54,0.09-0.81,0.13c-0.02,0-0.04,0.01-0.06,0.01c-0.25,0.03-0.51,0.05-0.76,0.07
		c-0.08,0.01-0.18,0.02-0.27,0.02c-0.32,0.02-0.65,0.03-0.97,0.03v0.01c-2.4,0-4.66-0.56-6.68-1.55c2.43-2.54,4.2-5.74,4.99-9.3
		c0.53,0.22,1.1,0.33,1.7,0.33c2.54,0,4.6-2.07,4.6-4.61v-30.26c0-2.54-2.06-4.61-4.6-4.61c-0.3,0-0.59,0.03-0.87,0.08
		c-0.04,0.01-0.08,0.02-0.12,0.03h-0.03c-0.04,0.01-0.09,0.02-0.13,0.03c-0.06,0.02-0.12,0.03-0.19,0.05
		c-0.05,0.02-0.09,0.03-0.13,0.05c-0.07,0.02-0.13,0.04-0.2,0.07c-0.1,0.03-0.2,0.07-0.3,0.12c-0.01,0-0.02,0.01-0.03,0.01
		c-0.08,0.04-0.18,0.09-0.26,0.13c-0.01,0.01-0.02,0.01-0.03,0.02c-0.03,0.02-0.07,0.04-0.1,0.06c-0.11,0.07-0.24,0.14-0.34,0.23
		c-0.01,0.01-0.02,0.02-0.03,0.02c-0.04,0.04-0.09,0.08-0.14,0.12c-0.01,0-0.03,0.01-0.03,0.02c-0.02,0.02-0.03,0.03-0.04,0.04
		c-0.04,0.03-0.07,0.06-0.11,0.09c-0.04,0.04-0.08,0.08-0.12,0.12c-0.04,0.03-0.08,0.07-0.11,0.11c-0.06,0.06-0.12,0.12-0.18,0.2
		c-0.02,0.02-0.04,0.04-0.06,0.07c-0.04,0.05-0.08,0.09-0.11,0.14c-0.02,0.02-0.04,0.05-0.06,0.07c-0.06,0.09-0.11,0.18-0.18,0.27
		c-0.05,0.09-0.1,0.19-0.16,0.28c-0.02,0.04-0.05,0.09-0.07,0.14c-0.03,0.07-0.06,0.13-0.09,0.22c-0.03,0.05-0.05,0.1-0.07,0.17
		c-0.02,0.07-0.05,0.14-0.07,0.21c-0.01,0.02-0.01,0.04-0.02,0.07c0,0.02-0.01,0.04-0.01,0.06c-0.02,0.03-0.02,0.07-0.04,0.11v0.03
		c-0.01,0.04-0.03,0.08-0.03,0.12c0,0.01,0,0.01,0,0.01c-0.02,0.06-0.03,0.13-0.04,0.2c-0.01,0.03-0.01,0.07-0.02,0.1
		c-0.01,0.06-0.02,0.11-0.02,0.18v0.05c-0.01,0.05-0.02,0.1-0.02,0.16c0,0.1-0.01,0.21-0.01,0.31c0,0.2,0,0.39-0.01,0.58v10.04
		h-10.51v-10.62c0-4.59,2.04-8.7,5.26-11.47c0.97-0.84,2.06-1.56,3.24-2.13c2-0.98,4.25-1.53,6.63-1.53
		c8.36,0,15.13,6.77,15.13,15.13c0,0.2,0,0.39-0.01,0.58V248.2z"/>
	<path d="M157.67,263.88c-0.03,0.01-0.07,0.01-0.11,0.01c-0.02,0.01-0.03,0.01-0.05,0.01c-0.27,0.01-0.54,0.02-0.81,0.02v-0.01
		C157.02,263.91,157.35,263.9,157.67,263.88z"/>
	<path d="M161.9,262.99c-0.47,0.19-0.94,0.33-1.42,0.44C160.96,263.31,161.44,263.17,161.9,262.99z"/>
	<path d="M132.34,232.94v0.35l-0.28-0.44C132.16,232.89,132.25,232.91,132.34,232.94z"/>
	<path d="M122.25,234.66c-0.14,0.13-0.28,0.27-0.41,0.41v-1.05l0.3,0.47L122.25,234.66z"/>
	<path d="M121.83,248.31v0.49h-0.01C121.82,248.63,121.82,248.46,121.83,248.31z"/>
	<path d="M121.83,248.31v0.49h-0.01C121.82,248.63,121.82,248.46,121.83,248.31z"/>
	<path d="M122.25,234.66c-0.14,0.13-0.28,0.27-0.41,0.41v-0.69c0.09,0.03,0.21,0.06,0.3,0.1L122.25,234.66z"/>
	<path d="M121.83,248.31v0.49h-0.01C121.82,248.63,121.82,248.46,121.83,248.31z"/>
	<path d="M122.25,234.66c-0.14,0.13-0.28,0.27-0.41,0.41v-1.05l0.3,0.47L122.25,234.66z"/>
	<path d="M122.25,234.66c-0.14,0.13-0.28,0.27-0.41,0.41v-1.05l0.3,0.47L122.25,234.66z"/>
	<path d="M132.29,250.03c-0.33,4.09-2.28,7.71-5.2,10.22c-1.39,1.2-2.99,2.14-4.75,2.77c-1.59,0.58-3.32,0.9-5.13,0.9
		c-8.36,0-15.12-6.77-15.12-15.13v-30.26c0-8.36,6.76-15.13,15.12-15.13c1.79,0,3.5,0.3,5.08,0.87c-2.7,2.58-4.65,5.92-5.53,9.67
		c-0.16,0.02-0.29,0.04-0.43,0.06c-0.06,0.02-0.12,0.03-0.19,0.05c-0.07,0.01-0.14,0.03-0.22,0.05c-0.07,0.02-0.14,0.04-0.21,0.07
		c-0.07,0.02-0.13,0.04-0.21,0.07c-0.13,0.05-0.27,0.11-0.39,0.18c-0.06,0.04-0.12,0.07-0.19,0.1c-0.13,0.07-0.25,0.16-0.37,0.24
		c-0.05,0.04-0.11,0.08-0.18,0.12c-0.04,0.03-0.08,0.07-0.12,0.1c-0.07,0.06-0.14,0.12-0.22,0.2l-0.19,0.19l-0.19,0.22
		c-0.06,0.07-0.11,0.14-0.18,0.22c-0.03,0.05-0.06,0.09-0.09,0.13c-0.07,0.11-0.13,0.22-0.2,0.32c-0.03,0.05-0.05,0.09-0.07,0.14
		c-0.03,0.04-0.05,0.08-0.06,0.12c-0.04,0.06-0.06,0.13-0.09,0.2c-0.03,0.07-0.06,0.14-0.08,0.22c-0.03,0.07-0.05,0.13-0.07,0.21
		c-0.03,0.1-0.06,0.21-0.08,0.31c-0.02,0.06-0.03,0.12-0.04,0.19c-0.01,0.06-0.02,0.11-0.03,0.18c-0.01,0.07-0.02,0.16-0.03,0.23
		c-0.02,0.16-0.02,0.32-0.02,0.48v30.26c0,2.39,1.82,4.36,4.16,4.59c0.14,0.01,0.3,0.02,0.44,0.02c2.55,0,4.61-2.07,4.61-4.61h0.01
		v-13.72c0.13-0.14,0.27-0.28,0.41-0.41l1.59,2.43l1.4,2.13l6.25,9.58L132.29,250.03z"/>
	<path d="M157.67,263.88c-0.03,0.01-0.07,0.01-0.11,0.01c-0.02,0.01-0.03,0.01-0.05,0.01c-0.27,0.01-0.54,0.02-0.81,0.02v-0.01
		C157.02,263.91,157.35,263.9,157.67,263.88z"/>
	<path d="M161.9,262.99c-0.47,0.19-0.94,0.33-1.42,0.44C160.96,263.31,161.44,263.17,161.9,262.99z"/>
	<path d="M157.67,263.88c-0.03,0.01-0.07,0.01-0.11,0.01c-0.02,0.01-0.03,0.01-0.05,0.01c-0.27,0.01-0.54,0.02-0.81,0.02v-0.01
		C157.02,263.91,157.35,263.9,157.67,263.88z"/>
	<path d="M161.9,262.99c-0.47,0.19-0.94,0.33-1.42,0.44C160.96,263.31,161.44,263.17,161.9,262.99z"/>
	<path d="M142.8,204.57c-2.55,2.53-4.41,5.77-5.26,9.39c-0.2-0.03-0.38-0.04-0.58-0.04c-0.2,0-0.39,0.01-0.59,0.04
		c-2.26,0.29-4.02,2.22-4.02,4.57v14.41c-0.09-0.03-0.19-0.05-0.28-0.09h-0.01l-0.52-0.8l-1.34-2.06l-1.24-1.9l-6.24-9.56
		l-0.84-1.27c0.34-4.07,2.29-7.68,5.21-10.2c1.19-1.02,2.54-1.87,4.02-2.48c1.8-0.77,3.78-1.18,5.84-1.18
		C139.02,203.4,141,203.81,142.8,204.57z"/>
	<path d="M132.34,232.94v0.35l-0.28-0.44C132.16,232.89,132.25,232.91,132.34,232.94z"/>
	<path d="M132.34,232.94v0.35l-0.28-0.44C132.16,232.89,132.25,232.91,132.34,232.94z"/>
	<path d="M121.83,248.31v0.49h-0.01C121.82,248.63,121.82,248.46,121.83,248.31z"/>
	<path d="M152.09,248.79c0,4.58-2.04,8.69-5.25,11.46c-1.26,1.09-2.71,1.98-4.29,2.6c-1.73,0.69-3.61,1.08-5.58,1.08
		c-2.06,0-4.01-0.41-5.8-1.16c2.55-2.53,4.42-5.78,5.27-9.4c0.17,0.02,0.35,0.04,0.53,0.04c0.17,0,0.33-0.01,0.5-0.03
		c2.31-0.25,4.12-2.2,4.12-4.58v-10.41h10.51v9.83C152.09,248.4,152.09,248.6,152.09,248.79z"/>
	<line x1="99.87" y1="257.63" x2="99.87" y2="257.63"/>
	<path d="M100.73,213.57"/>
</g>
<rect x="26.69" y="329.73" style="fill:none;" width="221.65" height="10.98"/>
<text transform="matrix(1 0 0 1 26.6889 337.2278)" style="font-family:'Roboto-Light'; font-size:10px;">DRAFTSMAN | WEB DESIGNER | WEB DEVELOPER</text>
<circle class="st0" cx="137.14" cy="233.66" r="49.25"/>
<g>
	<path class="st1" d="M19.74,44.91v0.49h-0.01C19.73,45.23,19.73,45.06,19.74,44.91z"/>
	<path class="st1" d="M20.16,31.25c-0.14,0.13-0.28,0.27-0.41,0.41v-0.69c0.09,0.03,0.21,0.06,0.3,0.1L20.16,31.25z"/>
	<path class="st1" d="M19.74,44.91v0.49h-0.01C19.73,45.23,19.73,45.06,19.74,44.91z"/>
	<path class="st1" d="M69.73,44.8c0.01,0.2,0.01,0.39,0.01,0.59c0,0.28-0.01,0.55-0.02,0.83c-0.03,0.47-0.07,0.93-0.14,1.39
		c-0.04,0.29-0.08,0.57-0.14,0.84c-0.03,0.17-0.06,0.32-0.11,0.49c-0.03,0.16-0.06,0.3-0.1,0.44c-0.16,0.56-0.34,1.1-0.55,1.62
		c-0.06,0.17-0.12,0.33-0.21,0.49c-0.08,0.21-0.19,0.4-0.28,0.61c-0.07,0.14-0.14,0.29-0.23,0.42c-0.08,0.17-0.18,0.32-0.27,0.48
		c-0.12,0.23-0.26,0.44-0.4,0.66c-0.14,0.22-0.29,0.42-0.44,0.63c-0.16,0.21-0.31,0.41-0.47,0.61c-0.17,0.21-0.33,0.4-0.51,0.59
		c-0.17,0.2-0.34,0.38-0.53,0.56c-0.19,0.19-0.37,0.36-0.56,0.54c-0.35,0.33-0.72,0.64-1.12,0.93c-0.38,0.29-0.79,0.56-1.2,0.81
		c-0.6,0.37-1.23,0.69-1.88,0.97c-0.03,0.02-0.06,0.03-0.1,0.04c-0.22,0.09-0.44,0.18-0.66,0.26c-0.47,0.18-0.94,0.32-1.42,0.44
		c-0.3,0.08-0.61,0.14-0.92,0.21c-0.27,0.05-0.54,0.09-0.81,0.13c-0.02,0-0.04,0.01-0.06,0.01c-0.25,0.03-0.51,0.05-0.76,0.07
		c-0.08,0.01-0.18,0.02-0.27,0.02c-0.32,0.02-0.65,0.03-0.97,0.03v0.01c-2.4,0-4.66-0.56-6.68-1.55c2.43-2.54,4.2-5.74,4.99-9.3
		c0.53,0.22,1.1,0.33,1.7,0.33c2.54,0,4.6-2.07,4.6-4.61V15.13c0-2.54-2.06-4.61-4.6-4.61c-0.3,0-0.59,0.03-0.87,0.08
		c-0.04,0.01-0.08,0.02-0.12,0.03h-0.03c-0.04,0.01-0.09,0.02-0.13,0.03c-0.06,0.02-0.12,0.03-0.19,0.05
		c-0.05,0.02-0.09,0.03-0.13,0.05c-0.07,0.02-0.13,0.04-0.2,0.07c-0.1,0.03-0.2,0.07-0.3,0.12c-0.01,0-0.02,0.01-0.03,0.01
		c-0.08,0.04-0.18,0.09-0.26,0.13c-0.01,0.01-0.02,0.01-0.03,0.02c-0.03,0.02-0.07,0.04-0.1,0.06c-0.11,0.07-0.24,0.14-0.34,0.23
		c-0.01,0.01-0.02,0.02-0.03,0.02c-0.04,0.04-0.09,0.08-0.14,0.12c-0.01,0-0.03,0.01-0.03,0.02c-0.02,0.02-0.03,0.03-0.04,0.04
		c-0.04,0.03-0.07,0.06-0.11,0.09c-0.04,0.04-0.08,0.08-0.12,0.12c-0.04,0.03-0.08,0.07-0.11,0.11c-0.06,0.06-0.12,0.12-0.18,0.2
		c-0.02,0.02-0.04,0.04-0.06,0.07c-0.04,0.05-0.08,0.09-0.11,0.14c-0.02,0.02-0.04,0.05-0.06,0.07c-0.06,0.09-0.11,0.18-0.18,0.27
		c-0.05,0.09-0.1,0.19-0.16,0.28c-0.02,0.04-0.05,0.09-0.07,0.14c-0.03,0.07-0.06,0.13-0.09,0.22c-0.03,0.05-0.05,0.1-0.07,0.17
		c-0.02,0.07-0.05,0.14-0.07,0.21c-0.01,0.02-0.01,0.04-0.02,0.07c0,0.02-0.01,0.04-0.01,0.06c-0.02,0.03-0.02,0.07-0.04,0.11V14
		c-0.01,0.04-0.03,0.08-0.03,0.12c0,0.01,0,0.01,0,0.01c-0.02,0.06-0.03,0.13-0.04,0.2c-0.01,0.03-0.01,0.07-0.02,0.1
		c-0.01,0.06-0.02,0.11-0.02,0.18v0.05c-0.01,0.05-0.02,0.1-0.02,0.16c0,0.1-0.01,0.21-0.01,0.31c0,0.2,0,0.39-0.01,0.58v10.04
		H39.48V15.13c0-4.59,2.04-8.7,5.26-11.47c0.97-0.84,2.06-1.56,3.24-2.13c2-0.98,4.25-1.53,6.63-1.53c8.36,0,15.13,6.77,15.13,15.13
		c0,0.2,0,0.39-0.01,0.58V44.8z"/>
	<path class="st1" d="M55.58,60.48c-0.03,0.01-0.07,0.01-0.11,0.01c-0.02,0.01-0.03,0.01-0.05,0.01c-0.27,0.01-0.54,0.02-0.81,0.02
		v-0.01C54.93,60.51,55.26,60.5,55.58,60.48z"/>
	<path class="st1" d="M59.81,59.59c-0.47,0.19-0.94,0.33-1.42,0.44C58.87,59.91,59.34,59.77,59.81,59.59z"/>
	<path class="st1" d="M30.25,29.54v0.35l-0.28-0.44C30.07,29.49,30.16,29.51,30.25,29.54z"/>
	<path class="st1" d="M20.16,31.25c-0.14,0.13-0.28,0.27-0.41,0.41v-1.05l0.3,0.47L20.16,31.25z"/>
	<path class="st1" d="M19.74,44.91v0.49h-0.01C19.73,45.23,19.73,45.06,19.74,44.91z"/>
	<path class="st1" d="M19.74,44.91v0.49h-0.01C19.73,45.23,19.73,45.06,19.74,44.91z"/>
	<path class="st1" d="M20.16,31.25c-0.14,0.13-0.28,0.27-0.41,0.41v-0.69c0.09,0.03,0.21,0.06,0.3,0.1L20.16,31.25z"/>
	<path class="st1" d="M19.74,44.91v0.49h-0.01C19.73,45.23,19.73,45.06,19.74,44.91z"/>
	<path class="st1" d="M20.16,31.25c-0.14,0.13-0.28,0.27-0.41,0.41v-1.05l0.3,0.47L20.16,31.25z"/>
	<path class="st1" d="M20.16,31.25c-0.14,0.13-0.28,0.27-0.41,0.41v-1.05l0.3,0.47L20.16,31.25z"/>
	<path class="st1" d="M30.2,46.63c-0.33,4.09-2.28,7.71-5.2,10.22c-1.39,1.2-2.99,2.14-4.75,2.77c-1.59,0.58-3.32,0.9-5.13,0.9
		C6.76,60.52,0,53.75,0,45.39V15.13C0,6.77,6.76,0,15.12,0c1.79,0,3.5,0.3,5.08,0.87c-2.7,2.58-4.65,5.92-5.53,9.67
		c-0.16,0.02-0.29,0.04-0.43,0.06c-0.06,0.02-0.12,0.03-0.19,0.05c-0.07,0.01-0.14,0.03-0.22,0.05c-0.07,0.02-0.14,0.04-0.21,0.07
		c-0.07,0.02-0.13,0.04-0.21,0.07c-0.13,0.05-0.27,0.11-0.39,0.18c-0.06,0.04-0.12,0.07-0.19,0.1c-0.13,0.07-0.25,0.16-0.37,0.24
		c-0.05,0.04-0.11,0.08-0.18,0.12c-0.04,0.03-0.08,0.07-0.12,0.1c-0.07,0.06-0.14,0.12-0.22,0.2l-0.19,0.19l-0.19,0.22
		c-0.06,0.07-0.11,0.14-0.18,0.22c-0.03,0.05-0.06,0.09-0.09,0.13c-0.07,0.11-0.13,0.22-0.2,0.32c-0.03,0.05-0.05,0.09-0.07,0.14
		c-0.03,0.04-0.05,0.08-0.06,0.12c-0.04,0.06-0.06,0.13-0.09,0.2c-0.03,0.07-0.06,0.14-0.08,0.22c-0.03,0.07-0.05,0.13-0.07,0.21
		c-0.03,0.1-0.06,0.21-0.08,0.31c-0.02,0.06-0.03,0.12-0.04,0.19c-0.01,0.06-0.02,0.11-0.03,0.18c-0.01,0.07-0.02,0.16-0.03,0.23
		c-0.02,0.16-0.02,0.32-0.02,0.48v30.26c0,2.39,1.82,4.36,4.16,4.59c0.14,0.01,0.3,0.02,0.44,0.02c2.55,0,4.61-2.07,4.61-4.61h0.01
		V31.67c0.13-0.14,0.27-0.28,0.41-0.41l1.59,2.43l1.4,2.13l6.25,9.58L30.2,46.63z"/>
	<path class="st1" d="M55.58,60.48c-0.03,0.01-0.07,0.01-0.11,0.01c-0.02,0.01-0.03,0.01-0.05,0.01c-0.27,0.01-0.54,0.02-0.81,0.02
		v-0.01C54.93,60.51,55.26,60.5,55.58,60.48z"/>
	<path class="st1" d="M59.81,59.59c-0.47,0.19-0.94,0.33-1.42,0.44C58.87,59.91,59.34,59.77,59.81,59.59z"/>
	<path class="st1" d="M55.58,60.48c-0.03,0.01-0.07,0.01-0.11,0.01c-0.02,0.01-0.03,0.01-0.05,0.01c-0.27,0.01-0.54,0.02-0.81,0.02
		v-0.01C54.93,60.51,55.26,60.5,55.58,60.48z"/>
	<path class="st1" d="M59.81,59.59c-0.47,0.19-0.94,0.33-1.42,0.44C58.87,59.91,59.34,59.77,59.81,59.59z"/>
	<path class="st1" d="M40.71,1.17c-2.55,2.53-4.41,5.77-5.26,9.39c-0.2-0.03-0.38-0.04-0.58-0.04c-0.2,0-0.39,0.01-0.59,0.04
		c-2.26,0.29-4.02,2.22-4.02,4.57v14.41c-0.09-0.03-0.19-0.05-0.28-0.09h-0.01l-0.52-0.8l-1.34-2.06l-1.24-1.9l-6.24-9.56
		l-0.84-1.27c0.34-4.07,2.29-7.68,5.21-10.2c1.19-1.02,2.54-1.87,4.02-2.48C30.82,0.41,32.8,0,34.86,0
		C36.93,0,38.91,0.41,40.71,1.17z"/>
	<path class="st1" d="M30.25,29.54v0.35l-0.28-0.44C30.07,29.49,30.16,29.51,30.25,29.54z"/>
	<path class="st1" d="M30.25,29.54v0.35l-0.28-0.44C30.07,29.49,30.16,29.51,30.25,29.54z"/>
	<path class="st1" d="M19.74,44.91v0.49h-0.01C19.73,45.23,19.73,45.06,19.74,44.91z"/>
	<path class="st1" d="M50,45.39c0,4.58-2.04,8.69-5.25,11.46c-1.26,1.09-2.71,1.98-4.29,2.6c-1.73,0.69-3.61,1.08-5.58,1.08
		c-2.06,0-4.01-0.41-5.8-1.16c2.55-2.53,4.42-5.78,5.27-9.4c0.17,0.02,0.35,0.04,0.53,0.04c0.17,0,0.33-0.01,0.5-0.03
		c2.31-0.25,4.12-2.2,4.12-4.58V34.98h10.51v9.83C50,45,50,45.2,50,45.39z"/>
	<line class="st1" x1="-2.22" y1="54.23" x2="-2.22" y2="54.23"/>
	<path class="st1" d="M-1.37,10.17"/>
</g>
<rect x="25.76" y="299.47" style="fill:none;" width="219.92" height="27.74"/>
<text transform="matrix(1 0 0 1 25.7624 324.9723)" style="font-family:'Roboto-Black'; font-size:34px;">NIKKO HULAR</text>
</svg>
