<?xml version="1.0" encoding="utf-8"?>
<!-- Generator: Adobe Illustrator 23.0.1, SVG Export Plug-In . SVG Version: 6.00 Build 0)  -->
<svg version="1.1" id="Layer_1" xmlns="http://www.w3.org/2000/svg" xmlns:xlink="http://www.w3.org/1999/xlink" x="0px" y="0px"
	 viewBox="0 0 30.04 26.14" style="enable-background:new 0 0 30.04 26.14;" xml:space="preserve">
<style type="text/css">
	.st0{fill:none;stroke:#000000;stroke-width:5;stroke-miterlimit:10;}
	.st1{fill:#FFFFFF;stroke:#000000;stroke-width:0.1;stroke-miterlimit:10;}
</style>
<g>
	<path d="M102.66,231.13v0.49h-0.01C102.65,231.45,102.65,231.29,102.66,231.13z"/>
	<path d="M103.07,217.48c-0.14,0.13-0.28,0.27-0.41,0.41v-0.69c0.09,0.03,0.21,0.06,0.3,0.1L103.07,217.48z"/>
	<path d="M102.66,231.13v0.49h-0.01C102.65,231.45,102.65,231.29,102.66,231.13z"/>
	<path d="M152.64,231.03c0.01,0.2,0.01,0.39,0.01,0.59c0,0.28-0.01,0.55-0.02,0.83c-0.03,0.47-0.07,0.93-0.14,1.39
		c-0.04,0.29-0.08,0.57-0.14,0.84c-0.03,0.17-0.06,0.32-0.11,0.49c-0.03,0.16-0.06,0.3-0.1,0.44c-0.16,0.56-0.34,1.1-0.55,1.62
		c-0.06,0.17-0.12,0.33-0.21,0.49c-0.08,0.21-0.19,0.4-0.28,0.61c-0.07,0.14-0.14,0.29-0.23,0.42c-0.08,0.17-0.18,0.32-0.27,0.48
		c-0.12,0.23-0.26,0.44-0.4,0.66c-0.14,0.22-0.29,0.42-0.44,0.63c-0.16,0.21-0.31,0.41-0.47,0.61c-0.17,0.21-0.33,0.4-0.51,0.59
		c-0.17,0.2-0.34,0.38-0.53,0.56c-0.19,0.19-0.37,0.36-0.56,0.54c-0.35,0.33-0.72,0.64-1.12,0.93c-0.38,0.29-0.79,0.56-1.2,0.81
		c-0.6,0.37-1.23,0.69-1.88,0.97c-0.03,0.02-0.06,0.03-0.1,0.04c-0.22,0.09-0.44,0.18-0.66,0.26c-0.47,0.18-0.94,0.32-1.42,0.44
		c-0.3,0.08-0.61,0.14-0.92,0.21c-0.27,0.05-0.54,0.09-0.81,0.13c-0.02,0-0.04,0.01-0.06,0.01c-0.25,0.03-0.51,0.05-0.76,0.07
		c-0.08,0.01-0.18,0.02-0.27,0.02c-0.32,0.02-0.65,0.03-0.97,0.03v0.01c-2.4,0-4.66-0.56-6.68-1.55c2.43-2.54,4.2-5.74,4.99-9.3
		c0.53,0.22,1.1,0.33,1.7,0.33c2.54,0,4.6-2.07,4.6-4.61v-30.26c0-2.54-2.06-4.61-4.6-4.61c-0.3,0-0.59,0.03-0.87,0.08
		c-0.04,0.01-0.08,0.02-0.12,0.03h-0.03c-0.04,0.01-0.09,0.02-0.13,0.03c-0.06,0.02-0.12,0.03-0.19,0.05
		c-0.05,0.02-0.09,0.03-0.13,0.05c-0.07,0.02-0.13,0.04-0.2,0.07c-0.1,0.03-0.2,0.07-0.3,0.12c-0.01,0-0.02,0.01-0.03,0.01
		c-0.08,0.04-0.18,0.09-0.26,0.13c-0.01,0.01-0.02,0.01-0.03,0.02c-0.03,0.02-0.07,0.04-0.1,0.06c-0.11,0.07-0.24,0.14-0.34,0.23
		c-0.01,0.01-0.02,0.02-0.03,0.02c-0.04,0.04-0.09,0.08-0.14,0.12c-0.01,0-0.03,0.01-0.03,0.02c-0.02,0.02-0.03,0.03-0.04,0.04
		c-0.04,0.03-0.07,0.06-0.11,0.09c-0.04,0.04-0.08,0.08-0.12,0.12c-0.04,0.03-0.08,0.07-0.11,0.11c-0.06,0.06-0.12,0.12-0.18,0.2
		c-0.02,0.02-0.04,0.04-0.06,0.07c-0.04,0.05-0.08,0.09-0.11,0.14c-0.02,0.02-0.04,0.05-0.06,0.07c-0.06,0.09-0.11,0.18-0.18,0.27
		c-0.05,0.09-0.1,0.19-0.16,0.28c-0.02,0.04-0.05,0.09-0.07,0.14c-0.03,0.07-0.06,0.13-0.09,0.22c-0.03,0.05-0.05,0.1-0.07,0.17
		c-0.02,0.07-0.05,0.14-0.07,0.21c-0.01,0.02-0.01,0.04-0.02,0.07c0,0.02-0.01,0.04-0.01,0.06c-0.02,0.03-0.02,0.07-0.04,0.11v0.03
		c-0.01,0.04-0.03,0.08-0.03,0.12c0,0.01,0,0.01,0,0.01c-0.02,0.06-0.03,0.13-0.04,0.2c-0.01,0.03-0.01,0.07-0.02,0.1
		c-0.01,0.06-0.02,0.11-0.02,0.18v0.05c-0.01,0.05-0.02,0.1-0.02,0.16c0,0.1-0.01,0.21-0.01,0.31c0,0.2,0,0.39-0.01,0.58v10.04
		h-10.51v-10.62c0-4.59,2.04-8.7,5.26-11.47c0.97-0.84,2.06-1.56,3.24-2.13c2-0.98,4.25-1.53,6.63-1.53
		c8.36,0,15.13,6.77,15.13,15.13c0,0.2,0,0.39-0.01,0.58V231.03z"/>
	<path d="M138.49,246.71c-0.03,0.01-0.07,0.01-0.11,0.01c-0.02,0.01-0.03,0.01-0.05,0.01c-0.27,0.01-0.54,0.02-0.81,0.02v-0.01
		C137.84,246.74,138.17,246.73,138.49,246.71z"/>
	<path d="M142.72,245.82c-0.47,0.19-0.94,0.33-1.42,0.44C141.78,246.14,142.26,245.99,142.72,245.82z"/>
	<path d="M113.16,215.76v0.35l-0.28-0.44C112.98,215.71,113.07,215.73,113.16,215.76z"/>
	<path d="M103.07,217.48c-0.14,0.13-0.28,0.27-0.41,0.41v-1.05l0.3,0.47L103.07,217.48z"/>
	<path d="M102.66,231.13v0.49h-0.01C102.65,231.45,102.65,231.29,102.66,231.13z"/>
	<path d="M102.66,231.13v0.49h-0.01C102.65,231.45,102.65,231.29,102.66,231.13z"/>
	<path d="M103.07,217.48c-0.14,0.13-0.28,0.27-0.41,0.41v-0.69c0.09,0.03,0.21,0.06,0.3,0.1L103.07,217.48z"/>
	<path d="M102.66,231.13v0.49h-0.01C102.65,231.45,102.65,231.29,102.66,231.13z"/>
	<path d="M103.07,217.48c-0.14,0.13-0.28,0.27-0.41,0.41v-1.05l0.3,0.47L103.07,217.48z"/>
	<path d="M103.07,217.48c-0.14,0.13-0.28,0.27-0.41,0.41v-1.05l0.3,0.47L103.07,217.48z"/>
	<path d="M113.11,232.86c-0.33,4.09-2.28,7.71-5.2,10.22c-1.39,1.2-2.99,2.14-4.75,2.77c-1.59,0.58-3.32,0.9-5.13,0.9
		c-8.36,0-15.12-6.77-15.12-15.13v-30.26c0-8.36,6.76-15.13,15.12-15.13c1.79,0,3.5,0.3,5.08,0.87c-2.7,2.58-4.65,5.92-5.53,9.67
		c-0.16,0.02-0.29,0.04-0.43,0.06c-0.06,0.02-0.12,0.03-0.19,0.05c-0.07,0.01-0.14,0.03-0.22,0.05c-0.07,0.02-0.14,0.04-0.21,0.07
		c-0.07,0.02-0.13,0.04-0.21,0.07c-0.13,0.05-0.27,0.11-0.39,0.18c-0.06,0.04-0.12,0.07-0.19,0.1c-0.13,0.07-0.25,0.16-0.37,0.24
		c-0.05,0.04-0.11,0.08-0.18,0.12c-0.04,0.03-0.08,0.07-0.12,0.1c-0.07,0.06-0.14,0.12-0.22,0.2l-0.19,0.19l-0.19,0.22
		c-0.06,0.07-0.11,0.14-0.18,0.22c-0.03,0.05-0.06,0.09-0.09,0.13c-0.07,0.11-0.13,0.22-0.2,0.32c-0.03,0.05-0.05,0.09-0.07,0.14
		c-0.03,0.04-0.05,0.08-0.06,0.12c-0.04,0.06-0.06,0.13-0.09,0.2c-0.03,0.07-0.06,0.14-0.08,0.22c-0.03,0.07-0.05,0.13-0.07,0.21
		c-0.03,0.1-0.06,0.21-0.08,0.31c-0.02,0.06-0.03,0.12-0.04,0.19c-0.01,0.06-0.02,0.11-0.03,0.18c-0.01,0.07-0.02,0.16-0.03,0.23
		c-0.02,0.16-0.02,0.32-0.02,0.48v30.26c0,2.39,1.82,4.36,4.16,4.59c0.14,0.01,0.3,0.02,0.44,0.02c2.55,0,4.61-2.07,4.61-4.61h0.01
		v-13.72c0.13-0.14,0.27-0.28,0.41-0.41l1.59,2.43l1.4,2.13l6.25,9.58L113.11,232.86z"/>
	<path d="M138.49,246.71c-0.03,0.01-0.07,0.01-0.11,0.01c-0.02,0.01-0.03,0.01-0.05,0.01c-0.27,0.01-0.54,0.02-0.81,0.02v-0.01
		C137.84,246.74,138.17,246.73,138.49,246.71z"/>
	<path d="M142.72,245.82c-0.47,0.19-0.94,0.33-1.42,0.44C141.78,246.14,142.26,245.99,142.72,245.82z"/>
	<path d="M138.49,246.71c-0.03,0.01-0.07,0.01-0.11,0.01c-0.02,0.01-0.03,0.01-0.05,0.01c-0.27,0.01-0.54,0.02-0.81,0.02v-0.01
		C137.84,246.74,138.17,246.73,138.49,246.71z"/>
	<path d="M142.72,245.82c-0.47,0.19-0.94,0.33-1.42,0.44C141.78,246.14,142.26,245.99,142.72,245.82z"/>
	<path d="M123.62,187.39c-2.55,2.53-4.41,5.77-5.26,9.39c-0.2-0.03-0.38-0.04-0.58-0.04c-0.2,0-0.39,0.01-0.59,0.04
		c-2.26,0.29-4.02,2.22-4.02,4.57v14.41c-0.09-0.03-0.19-0.05-0.28-0.09h-0.01l-0.52-0.8l-1.34-2.06l-1.24-1.9l-6.24-9.56
		l-0.84-1.27c0.34-4.07,2.29-7.68,5.21-10.2c1.19-1.02,2.54-1.87,4.02-2.48c1.8-0.77,3.78-1.18,5.84-1.18
		C119.85,186.22,121.82,186.64,123.62,187.39z"/>
	<path d="M113.16,215.76v0.35l-0.28-0.44C112.98,215.71,113.07,215.73,113.16,215.76z"/>
	<path d="M113.16,215.76v0.35l-0.28-0.44C112.98,215.71,113.07,215.73,113.16,215.76z"/>
	<path d="M102.66,231.13v0.49h-0.01C102.65,231.45,102.65,231.29,102.66,231.13z"/>
	<path d="M132.91,231.62c0,4.58-2.04,8.69-5.25,11.46c-1.26,1.09-2.71,1.98-4.29,2.6c-1.73,0.69-3.61,1.08-5.58,1.08
		c-2.06,0-4.01-0.41-5.8-1.16c2.55-2.53,4.42-5.78,5.27-9.4c0.17,0.02,0.35,0.04,0.53,0.04c0.17,0,0.33-0.01,0.5-0.03
		c2.31-0.25,4.12-2.2,4.12-4.58V221.2h10.51v9.83C132.91,231.22,132.91,231.42,132.91,231.62z"/>
	<line x1="80.7" y1="240.45" x2="80.69" y2="240.45"/>
	<path d="M81.55,196.39"/>
</g>
<rect x="7.51" y="312.55" style="fill:none;" width="221.65" height="10.98"/>
<text transform="matrix(1 0 0 1 7.5112 320.051)" style="font-family:'Roboto-Light'; font-size:10px;">DRAFTSMAN | WEB DESIGNER | WEB DEVELOPER</text>
<circle class="st0" cx="117.96" cy="216.49" r="49.25"/>
<g>
	<path class="st1" d="M8.67,19.26v0.21h0C8.66,19.4,8.66,19.33,8.67,19.26z"/>
	<path class="st1" d="M8.84,13.5c-0.06,0.06-0.12,0.11-0.17,0.17v-0.29c0.04,0.01,0.09,0.03,0.13,0.04L8.84,13.5z"/>
	<path class="st1" d="M8.67,19.26v0.21h0C8.66,19.4,8.66,19.33,8.67,19.26z"/>
	<path class="st1" d="M29.75,19.22c0,0.08,0,0.17,0,0.25c0,0.12,0,0.23-0.01,0.35c-0.01,0.2-0.03,0.39-0.06,0.58
		c-0.02,0.12-0.03,0.24-0.06,0.35c-0.01,0.07-0.03,0.14-0.05,0.21c-0.01,0.07-0.03,0.13-0.04,0.19c-0.07,0.24-0.14,0.46-0.23,0.68
		c-0.03,0.07-0.05,0.14-0.09,0.21c-0.03,0.09-0.08,0.17-0.12,0.26c-0.03,0.06-0.06,0.12-0.1,0.18c-0.03,0.07-0.07,0.14-0.11,0.2
		c-0.05,0.1-0.11,0.19-0.17,0.28c-0.06,0.09-0.12,0.18-0.19,0.27c-0.07,0.09-0.13,0.17-0.2,0.26c-0.07,0.09-0.14,0.17-0.21,0.25
		c-0.07,0.08-0.14,0.16-0.22,0.24c-0.08,0.08-0.16,0.15-0.24,0.23c-0.15,0.14-0.31,0.27-0.47,0.39c-0.16,0.12-0.33,0.24-0.51,0.34
		c-0.25,0.16-0.52,0.29-0.79,0.41c-0.01,0.01-0.03,0.01-0.04,0.02c-0.09,0.04-0.19,0.07-0.28,0.11c-0.2,0.07-0.4,0.14-0.6,0.19
		c-0.13,0.03-0.26,0.06-0.39,0.09c-0.11,0.02-0.23,0.04-0.34,0.06c-0.01,0-0.02,0-0.03,0c-0.1,0.01-0.21,0.02-0.32,0.03
		c-0.03,0-0.07,0.01-0.11,0.01c-0.14,0.01-0.27,0.01-0.41,0.01v0c-1.01,0-1.97-0.24-2.82-0.65c1.03-1.07,1.77-2.42,2.1-3.92
		c0.22,0.09,0.46,0.14,0.72,0.14c1.07,0,1.94-0.87,1.94-1.95V6.7c0-1.07-0.87-1.95-1.94-1.95c-0.13,0-0.25,0.01-0.37,0.03
		c-0.02,0-0.03,0.01-0.05,0.01h-0.01c-0.02,0-0.04,0.01-0.06,0.01c-0.03,0.01-0.05,0.01-0.08,0.02c-0.02,0.01-0.04,0.01-0.06,0.02
		c-0.03,0.01-0.06,0.02-0.08,0.03c-0.04,0.01-0.08,0.03-0.13,0.05c0,0-0.01,0-0.01,0c-0.03,0.02-0.07,0.04-0.11,0.06
		c0,0-0.01,0-0.01,0.01c-0.01,0.01-0.03,0.02-0.04,0.03c-0.05,0.03-0.1,0.06-0.14,0.1c0,0-0.01,0.01-0.01,0.01
		c-0.02,0.02-0.04,0.03-0.06,0.05c0,0-0.01,0-0.01,0.01c-0.01,0.01-0.01,0.01-0.02,0.02c-0.02,0.01-0.03,0.03-0.05,0.04
		c-0.02,0.02-0.03,0.03-0.05,0.05C22,5.33,21.98,5.35,21.97,5.36c-0.03,0.03-0.05,0.05-0.07,0.08c-0.01,0.01-0.02,0.02-0.03,0.03
		c-0.02,0.02-0.03,0.04-0.05,0.06c-0.01,0.01-0.02,0.02-0.03,0.03c-0.03,0.04-0.05,0.07-0.07,0.11c-0.02,0.04-0.04,0.08-0.07,0.12
		c-0.01,0.02-0.02,0.04-0.03,0.06c-0.01,0.03-0.03,0.06-0.04,0.09C21.57,5.97,21.56,6,21.55,6.02c-0.01,0.03-0.02,0.06-0.03,0.09
		c0,0.01,0,0.02-0.01,0.03c0,0.01,0,0.02,0,0.03C21.5,6.18,21.5,6.2,21.49,6.21v0.01c0,0.02-0.01,0.03-0.01,0.05c0,0,0,0,0,0
		c-0.01,0.03-0.01,0.06-0.02,0.08c0,0.01,0,0.03-0.01,0.04c0,0.03-0.01,0.05-0.01,0.07v0.02c0,0.02-0.01,0.04-0.01,0.07
		c0,0.04,0,0.09,0,0.13c0,0.08,0,0.17,0,0.24v4.24h-4.43V6.7c0-1.94,0.86-3.67,2.22-4.84c0.41-0.35,0.87-0.66,1.37-0.9
		c0.84-0.41,1.79-0.65,2.8-0.65c3.53,0,6.38,2.86,6.38,6.38c0,0.08,0,0.17,0,0.24V19.22z"/>
	<path class="st1" d="M23.79,25.83c-0.01,0-0.03,0-0.05,0c-0.01,0-0.01,0-0.02,0c-0.11,0-0.23,0.01-0.34,0.01v0
		C23.51,25.85,23.65,25.84,23.79,25.83z"/>
	<path class="st1" d="M25.57,25.46c-0.2,0.08-0.4,0.14-0.6,0.19C25.17,25.59,25.37,25.53,25.57,25.46z"/>
	<path class="st1" d="M13.1,12.78v0.15l-0.12-0.19C13.02,12.76,13.06,12.77,13.1,12.78z"/>
	<path class="st1" d="M8.84,13.5c-0.06,0.06-0.12,0.11-0.17,0.17v-0.45l0.13,0.2L8.84,13.5z"/>
	<path class="st1" d="M8.67,19.26v0.21h0C8.66,19.4,8.66,19.33,8.67,19.26z"/>
	<path class="st1" d="M8.67,19.26v0.21h0C8.66,19.4,8.66,19.33,8.67,19.26z"/>
	<path class="st1" d="M8.84,13.5c-0.06,0.06-0.12,0.11-0.17,0.17v-0.29c0.04,0.01,0.09,0.03,0.13,0.04L8.84,13.5z"/>
	<path class="st1" d="M8.67,19.26v0.21h0C8.66,19.4,8.66,19.33,8.67,19.26z"/>
	<path class="st1" d="M8.84,13.5c-0.06,0.06-0.12,0.11-0.17,0.17v-0.45l0.13,0.2L8.84,13.5z"/>
	<path class="st1" d="M8.84,13.5c-0.06,0.06-0.12,0.11-0.17,0.17v-0.45l0.13,0.2L8.84,13.5z"/>
	<path class="st1" d="M13.08,19.99c-0.14,1.72-0.96,3.25-2.19,4.31c-0.58,0.51-1.26,0.9-2,1.17c-0.67,0.24-1.4,0.38-2.16,0.38
		c-3.53,0-6.38-2.86-6.38-6.38V6.7c0-3.53,2.85-6.38,6.38-6.38c0.75,0,1.47,0.13,2.14,0.37C7.72,1.77,6.9,3.18,6.53,4.77
		C6.46,4.77,6.4,4.78,6.34,4.79C6.32,4.8,6.29,4.8,6.26,4.81c-0.03,0-0.06,0.01-0.09,0.02C6.14,4.84,6.11,4.85,6.09,4.87
		C6.06,4.87,6.03,4.88,6,4.9C5.94,4.92,5.89,4.94,5.83,4.97C5.81,4.99,5.78,5,5.75,5.01C5.7,5.04,5.65,5.08,5.6,5.11
		C5.58,5.13,5.55,5.15,5.52,5.17C5.51,5.18,5.49,5.2,5.47,5.21C5.44,5.24,5.41,5.26,5.38,5.29L5.3,5.37L5.22,5.46
		C5.2,5.49,5.17,5.52,5.15,5.55C5.13,5.58,5.12,5.59,5.11,5.61C5.08,5.66,5.05,5.7,5.03,5.75C5.01,5.77,5,5.79,5,5.81
		C4.98,5.83,4.97,5.84,4.97,5.86C4.95,5.89,4.94,5.92,4.93,5.94C4.92,5.97,4.9,6,4.89,6.03C4.88,6.07,4.87,6.09,4.86,6.12
		C4.85,6.17,4.84,6.21,4.83,6.25C4.82,6.28,4.82,6.31,4.81,6.33c0,0.03-0.01,0.05-0.01,0.07c0,0.03-0.01,0.07-0.01,0.1
		C4.78,6.57,4.78,6.64,4.78,6.7v12.77c0,1.01,0.77,1.84,1.75,1.94c0.06,0,0.13,0.01,0.19,0.01c1.08,0,1.95-0.87,1.95-1.95h0v-5.79
		c0.06-0.06,0.11-0.12,0.17-0.17l0.67,1.03l0.59,0.9l2.64,4.04L13.08,19.99z"/>
	<path class="st1" d="M23.79,25.83c-0.01,0-0.03,0-0.05,0c-0.01,0-0.01,0-0.02,0c-0.11,0-0.23,0.01-0.34,0.01v0
		C23.51,25.85,23.65,25.84,23.79,25.83z"/>
	<path class="st1" d="M25.57,25.46c-0.2,0.08-0.4,0.14-0.6,0.19C25.17,25.59,25.37,25.53,25.57,25.46z"/>
	<path class="st1" d="M23.79,25.83c-0.01,0-0.03,0-0.05,0c-0.01,0-0.01,0-0.02,0c-0.11,0-0.23,0.01-0.34,0.01v0
		C23.51,25.85,23.65,25.84,23.79,25.83z"/>
	<path class="st1" d="M25.57,25.46c-0.2,0.08-0.4,0.14-0.6,0.19C25.17,25.59,25.37,25.53,25.57,25.46z"/>
	<path class="st1" d="M17.51,0.81c-1.08,1.07-1.86,2.43-2.22,3.96c-0.08-0.01-0.16-0.02-0.24-0.02s-0.17,0-0.25,0.02
		c-0.96,0.12-1.7,0.94-1.7,1.93v6.08c-0.04-0.01-0.08-0.02-0.12-0.04h0l-0.22-0.34l-0.57-0.87l-0.52-0.8L9.04,6.7L8.69,6.17
		c0.14-1.72,0.96-3.24,2.2-4.3c0.5-0.43,1.07-0.79,1.7-1.05c0.76-0.32,1.59-0.5,2.47-0.5S16.75,0.49,17.51,0.81z"/>
	<path class="st1" d="M13.1,12.78v0.15l-0.12-0.19C13.02,12.76,13.06,12.77,13.1,12.78z"/>
	<path class="st1" d="M13.1,12.78v0.15l-0.12-0.19C13.02,12.76,13.06,12.77,13.1,12.78z"/>
	<path class="st1" d="M8.67,19.26v0.21h0C8.66,19.4,8.66,19.33,8.67,19.26z"/>
	<path class="st1" d="M21.43,19.47c0,1.93-0.86,3.66-2.22,4.83c-0.53,0.46-1.14,0.83-1.81,1.1c-0.73,0.29-1.52,0.45-2.36,0.45
		c-0.87,0-1.69-0.17-2.45-0.49c1.08-1.07,1.86-2.44,2.23-3.97c0.07,0.01,0.15,0.02,0.22,0.02c0.07,0,0.14,0,0.21-0.01
		c0.97-0.1,1.74-0.93,1.74-1.93v-4.39h4.43v4.14C21.43,19.3,21.43,19.39,21.43,19.47z"/>
	<line class="st1" x1="-0.6" y1="23.2" x2="-0.6" y2="23.2"/>
	<path class="st1" d="M-0.24,4.61"/>
</g>
<rect x="6.58" y="282.29" style="fill:none;" width="219.92" height="27.74"/>
<text transform="matrix(1 0 0 1 6.5847 307.7956)" style="font-family:'Roboto-Black'; font-size:34px;">NIKKO HULAR</text>
</svg>
